# xmcd CD database file
#
# Track frame offsets:
#	150
#	14442
#	31117
#	49042
#
# Disc length: 863 seconds
#
# Revision: 0
# Processed by: cddbd v1.5.1PL0 Copyright (c) Steve Scherf et al.
# Submitted via: CDex 1.51
#
DISCID=25035d04
DTITLE=PLASTICS - ORIGATO25 (BONUS DISK)
DYEAR=2005
DGENRE=Techno
TTITLE0=COPY('79 UK VERSION)
TTITLE1=ROBOT('79 UK VERSION)
TTITLE2=RELAX(NU TRAK)
TTITLE3=CONFESSION'NU TRAK)
EXTD=YEAR: 2005
EXTT0=
EXTT1=
EXTT2=
EXTT3=
PLAYORDER=
